<?xml version="1.0" standalone="no"?>
<!DOCTYPE svg PUBLIC "-//W3C//DTD SVG 20010904//EN"
 "http://www.w3.org/TR/2001/REC-SVG-20010904/DTD/svg10.dtd">
<svg version="1.0" xmlns="http://www.w3.org/2000/svg"
 width="225.000000pt" height="225.000000pt" viewBox="0 0 225.000000 225.000000"
 preserveAspectRatio="xMidYMid meet">

<g transform="translate(0.000000,225.000000) scale(0.100000,-0.100000)"
fill="#000000" stroke="none">
<path d="M1250 1695 c0 -9 -9 -15 -22 -15 -40 -1 -92 -34 -108 -67 -11 -24
-22 -33 -40 -33 -15 0 -30 4 -35 9 -16 15 -135 26 -135 12 0 -6 7 -11 15 -11
14 0 14 -3 -2 -23 -17 -24 -57 -47 -79 -47 -7 0 -16 -4 -19 -10 -3 -5 15 -15
39 -21 49 -12 53 -29 7 -29 -16 0 -34 -6 -40 -14 -10 -12 -5 -16 24 -26 20 -7
47 -9 61 -6 17 5 24 2 24 -8 0 -8 7 -17 15 -20 12 -4 13 -11 7 -23 -32 -60
-18 -173 20 -173 10 0 18 -7 18 -15 0 -20 10 -19 35 5 24 22 54 26 128 15 47
-8 47 -7 48 21 l1 29 11 -27 c6 -16 19 -28 29 -28 23 0 22 1 -3 60 l-21 48 40
40 c54 54 59 89 25 166 -15 33 -31 64 -36 67 -5 4 -4 15 2 27 14 26 15 112 1
112 -5 0 -10 -7 -10 -15z m-40 -232 c0 -43 -39 -63 -76 -38 -31 20 -30 27 9
46 24 12 31 22 29 39 -2 23 -2 23 18 5 12 -11 20 -31 20 -52z"/>
<path d="M778 1392 c-34 -4 -58 -36 -58 -77 0 -16 -7 -39 -15 -49 -18 -24 -19
-68 -3 -84 21 -21 45 -13 58 18 13 31 7 80 -10 80 -16 0 -12 43 6 68 11 16 24
22 42 20 24 -3 27 -8 30 -44 2 -24 -5 -63 -17 -93 -15 -39 -16 -51 -6 -51 19
0 47 102 43 157 -3 50 -18 62 -70 55z"/>
<path d="M1339 1239 c-10 -20 -8 -54 6 -91 6 -16 -1 -17 -90 -11 -77 5 -99 3
-106 -8 -8 -12 -11 -11 -20 4 -14 24 -56 22 -70 -4 -6 -12 -8 -39 -5 -63 7
-52 7 -53 0 -99 -9 -56 16 -89 64 -85 35 3 37 5 40 43 3 38 3 39 -15 22 -11
-9 -30 -18 -43 -19 -35 -4 -39 28 -6 43 33 16 34 47 1 59 -22 8 -24 13 -15 31
9 16 14 18 26 8 16 -13 16 -13 32 16 6 11 12 14 12 8 0 -7 7 -13 15 -13 12 0
15 -19 15 -111 0 -99 2 -110 17 -107 16 3 18 16 17 111 l0 107 28 0 c26 0 28
-3 28 -37 0 -20 -7 -44 -15 -53 -12 -13 -13 -23 -4 -48 16 -47 58 -51 59 -4 0
6 9 12 20 12 17 0 20 -7 20 -40 0 -33 3 -40 20 -40 19 0 20 6 19 102 -1 68 2
103 10 106 19 6 13 49 -9 55 -25 6 -28 58 -5 77 13 10 19 10 35 -5 16 -14 20
-15 20 -4 0 52 -78 81 -101 38z m11 -199 c0 -33 -3 -40 -20 -40 -17 0 -20 7
-20 40 0 33 3 40 20 40 17 0 20 -7 20 -40z"/>
<path d="M2045 1164 c-9 -9 -14 -23 -11 -30 20 -47 21 -45 -31 -38 -55 7 -73
-8 -49 -42 16 -21 51 -12 42 11 -3 8 -1 15 5 15 15 0 23 -30 11 -42 -6 -6 -25
-11 -42 -10 -26 1 -30 -3 -30 -24 0 -38 44 -77 81 -72 16 3 29 1 29 -4 0 -4 9
-8 20 -8 18 0 20 7 20 70 0 40 4 70 10 70 19 0 10 28 -10 33 -24 6 -27 45 -4
54 9 3 25 1 35 -6 25 -15 26 6 2 25 -25 18 -58 17 -78 -2z m1 -180 c-6 -16
-71 -19 -81 -4 -3 6 1 7 10 4 24 -10 65 23 67 54 1 23 2 22 5 -6 3 -19 2 -40
-1 -48z"/>
<path d="M575 1113 c-332 -20 -355 -22 -355 -39 0 -8 5 -14 10 -14 6 0 10 -16
10 -35 0 -29 -4 -35 -21 -35 -15 0 -19 4 -15 15 3 8 9 22 12 30 3 8 -5 25 -20
40 -32 32 -81 32 -81 0 0 -15 5 -19 20 -16 38 7 48 6 52 -6 3 -7 -7 -17 -21
-23 -33 -12 -33 -18 1 -31 24 -9 25 -11 10 -26 -24 -24 -65 -3 -73 37 -7 34
-24 41 -24 10 0 -75 88 -130 124 -79 16 24 36 18 36 -12 0 -10 7 -19 15 -19
12 0 15 15 15 75 0 73 1 75 25 75 24 0 25 -2 25 -75 0 -60 3 -75 15 -75 12 0
15 15 15 74 l0 73 57 7 c34 4 60 3 67 -4 7 -7 1 -10 -20 -10 -17 0 -39 -6 -50
-14 -16 -13 -17 -18 -6 -36 9 -14 10 -26 2 -40 -17 -33 -11 -61 21 -91 30 -28
79 -40 79 -19 0 6 -8 10 -18 10 -11 0 -27 9 -38 21 -17 19 -17 23 -3 47 9 17
25 28 42 30 48 6 33 32 -18 32 -25 0 -45 5 -45 10 0 6 20 10 45 10 43 0 45 1
45 30 l0 30 60 0 c43 0 60 -4 60 -13 0 -9 -10 -12 -32 -9 -22 3 -35 0 -45 -14
-33 -45 0 -124 51 -124 13 0 26 -7 30 -15 3 -8 10 -15 16 -15 6 0 10 36 10 95
0 95 0 95 25 95 25 0 25 0 25 -95 0 -77 3 -95 15 -95 11 0 15 20 17 98 l3 97
73 3 c72 3 73 2 70 -20 -3 -20 -10 -24 -53 -28 -49 -5 -50 -6 -53 -41 -2 -25
3 -40 17 -53 27 -25 55 -14 49 19 -4 21 -1 25 18 25 22 0 24 -4 24 -55 0 -42
3 -55 15 -55 12 0 15 18 15 105 0 87 3 105 15 105 9 0 15 9 15 25 0 24 -1 25
-72 24 -40 -1 -176 -8 -303 -16z m53 -120 c-4 -23 -49 -46 -63 -32 -7 7 -2 17
14 30 29 24 54 25 49 2z"/>
<path d="M1490 1100 c0 -17 7 -20 40 -20 34 0 42 -4 52 -25 9 -20 9 -28 -1
-38 -9 -9 -16 -7 -30 12 -36 47 -56 -14 -27 -82 20 -47 73 -94 88 -79 9 9 9
12 0 12 -17 0 -52 37 -52 55 0 8 8 15 19 15 39 0 51 46 26 103 -5 12 -3 17 9
17 10 0 16 9 16 25 0 24 -2 25 -70 25 -63 0 -70 -2 -70 -20z"/>
<path d="M1659 1104 c-11 -14 -10 -21 4 -46 17 -30 17 -31 -3 -50 -40 -37 -11
-98 47 -98 13 0 24 -8 28 -20 3 -11 11 -20 16 -20 12 0 12 17 -1 25 -5 3 0 15
11 26 15 15 17 24 9 39 -14 26 -40 26 -47 0 -6 -23 -53 -29 -53 -6 0 20 60 52
93 48 25 -3 27 -6 27 -53 0 -43 3 -50 18 -47 14 3 17 16 20 81 3 69 5 77 22
77 18 0 20 -7 20 -75 0 -68 2 -75 20 -75 18 0 20 7 20 75 0 43 4 75 10 75 6 0
10 9 10 20 0 18 -7 20 -69 20 -38 0 -76 3 -84 6 -8 3 -17 -2 -21 -11 -4 -12 0
-19 14 -22 26 -7 27 -43 1 -43 -13 0 -20 10 -25 32 -3 17 -11 37 -17 45 -16
18 -54 16 -70 -3z m64 -50 c-8 -20 -33 -17 -33 4 0 10 3 22 7 25 10 11 32 -13
26 -29z"/>
<path d="M990 1006 c0 -31 6 -34 13 -6 3 11 1 23 -4 26 -5 3 -9 -6 -9 -20z"/>
<path d="M1440 921 c0 -50 1 -53 15 -35 19 24 19 45 0 70 -13 17 -14 15 -15
-35z"/>
<path d="M980 929 c0 -5 5 -7 10 -4 6 3 10 8 10 11 0 2 -4 4 -10 4 -5 0 -10
-5 -10 -11z"/>
<path d="M988 866 c-4 -32 -16 -57 -43 -90 -43 -53 -54 -108 -36 -181 8 -34 8
-49 0 -63 -9 -15 -9 -26 2 -50 11 -26 21 -32 68 -41 77 -15 235 -13 308 4 82
19 178 63 253 116 57 40 73 59 49 59 -5 0 -8 3 -6 8 11 18 -13 52 -38 52 -23
0 -25 -3 -19 -22 9 -31 14 -35 24 -18 5 8 11 12 15 9 3 -3 -4 -14 -15 -24 -11
-10 -22 -16 -23 -14 -2 2 -17 42 -33 88 -16 47 -35 86 -42 89 -6 2 -17 -9 -23
-25 -14 -36 2 -90 37 -133 l26 -30 -29 0 c-15 1 -41 7 -58 14 l-30 14 29 11
c19 8 26 16 22 27 -3 9 -6 20 -6 26 0 6 -11 7 -26 4 -20 -5 -25 -4 -21 6 3 7
15 37 26 67 l22 54 -61 -7 c-39 -5 -60 -3 -60 4 0 5 -4 10 -9 10 -6 0 -9 -39
-8 -90 l2 -90 -115 -50 c-63 -27 -120 -50 -127 -50 -7 0 -17 -8 -22 -17 -9
-16 -12 -16 -21 -3 -26 40 13 160 77 237 l43 51 -35 12 c-19 6 -48 27 -64 46
l-28 35 -5 -45z m272 -283 c0 -5 -22 -22 -48 -39 -45 -30 -52 -31 -108 -25
l-59 7 95 31 c101 33 120 37 120 26z"/>
<path d="M1556 745 c19 -46 34 -89 34 -95 0 -5 7 -10 15 -10 17 0 30 58 20 92
-4 16 -3 19 3 9 7 -9 12 -10 16 -2 8 13 -1 31 -15 31 -6 0 -24 14 -41 30 -16
17 -38 30 -47 30 -16 0 -15 -9 15 -85z"/>
<path d="M1188 803 c6 -2 18 -2 25 0 6 3 1 5 -13 5 -14 0 -19 -2 -12 -5z"/>
<path d="M1476 802 c-12 -20 7 -52 30 -52 24 0 32 -14 14 -25 -5 -3 -10 -16
-10 -28 1 -20 2 -21 14 -4 14 18 32 24 21 7 -3 -5 -1 -10 5 -10 7 0 9 7 6 16
-3 9 -9 27 -12 40 -4 17 -13 24 -30 24 -24 0 -32 14 -15 24 5 4 11 0 14 -6 2
-7 8 -9 13 -5 5 4 2 12 -6 17 -19 12 -37 13 -44 2z"/>
<path d="M1495 730 c4 -6 11 -8 16 -5 14 9 11 15 -7 15 -8 0 -12 -5 -9 -10z"/>
</g>
</svg>
